<?xml version="1.0" encoding="UTF-8"?>
<svg version="1.1" viewBox="0 0 1024 1024" width="256" height="256" xmlns="http://www.w3.org/2000/svg">
<path transform="translate(600,16)" d="m0 0h335l17 3 16 7 12 9 11 11 9 14 5 13 2 9 1 12v254l-1 17-4 15-8 16-7 9-10 10-15 9-13 5-10 2-13 1h-111v34l9-2h13l12 3 10 6 9 8 7 11 2 6 11-2h13l12 3 12 7 7 7 7 11 2 6 11-2h12l10 2 12 6 10 9 7 11 3 9 1 9v191l-1 17-4 15-13 28-10 19-3 9-1 27h31l1 1v126l-21 1h-362l-1-1v-127l31-1v-25l-7-11-14-18-13-18-7-11-6-15-4-23-10-79-4-17-7-14-16-24-5-10-2-6v-14l3-10 6-10 9-8 11-5 5-1h16l18 3 16 6 11 6 12 9 10 9 10 13 9 17 5 16 9 42 4 22v4l2-1 2-7 1-26 1-241h-112l-14-1-15-4-14-7-10-8-10-10-9-14-5-13-3-15v-273l3-15 5-12 6-10 7-9 11-10 14-8 13-5z"/>
<path transform="translate(87,16)" d="m0 0h336l13 2 14 5 12 7 11 9 11 14 7 14 4 15 1 10v260l-1 14-3 12-8 16-7 10-11 11-15 9-13 5-10 2-14 1h-318l-14-1-15-4-14-7-10-8-10-10-9-14-5-13-3-15v-273l3-15 5-12 6-10 7-9 11-10 14-8 13-5z" fill="#F3F6F6"/>
<path transform="translate(89,528)" d="m0 0h333l14 2 14 5 12 7 12 11 8 9 7 12 5 15 2 16v256l-1 17-5 17-7 13-7 9-10 10-15 9-14 5-9 2-16 1h-314l-16-1-15-4-14-7-10-8-10-10-9-14-5-13-3-15v-273l3-15 5-12 6-10 7-9 11-10 14-8 10-4 8-2z" fill="#F3F5F5"/>
<path transform="translate(601,48)" d="m0 0h331l11 2 12 6 10 9 6 9 4 11 1 10v257l-1 11-4 11-8 11-8 7-10 5-7 2-10 1h-112v-33l2-1 5 1h9l15-3 12-5 11-8 10-9 16-16 7-9 5-11 3-13v-10l-4-16-6-11-12-13-22-22-10-7-10-4-6-1h-12l-12 3-11 6-8 8-6 10-4 3-3 1h-8l-8-5-14-14-3-6v-9l4-6 14-10 7-9 4-9 2-9v-12l-3-12-6-10-11-12-21-21-13-9-10-4-5-1h-20l-13 4-10 6-12 11-19 19-9 14-4 11-2 11v15l4 16 11 24 10 18 14 21 10 13 12 14 15 16 13 12 11 9 6 5-2 4-5 9-3 15-1 50-1 1h-113l-13-2-12-6-10-9-7-11-3-8-1-6v-269l3-11 6-11 10-10 16-8z" fill="#F3F6F6"/>
<path transform="translate(763,336)" d="m0 0h9l6 3 4 5 2 5v82l-1 209h33v-131l2-5 5-5 5-3h8l8 5 3 5 1 4-1 130h33v-99l2-5 5-5 5-3h8l7 4 4 6v102h33v-67l2-5 5-5 5-3h8l6 4 5 6 1 4-1 205-5 13-22 44-3 7-1 35-1 1-14 1h-241l-1-38-12-16-16-21-13-18-7-14-2-9-10-80-3-19-5-16-8-16-10-16-9-14v-6l6-5h9l15 3 14 6 11 8 9 9 7 11 5 11 5 21 18 89v2l40-1 2-6 8-16 6-14 4-19 1-348 4-7z" fill="#F1D0B2"/>
<path transform="translate(81,623)" d="m0 0 351 1v224h-352l-1-3 1-221z"/>
<path transform="translate(89,528)" d="m0 0h333l14 2 14 5 12 7 12 11 8 9 7 12 5 15 2 16v256l-1 17-5 17-7 13-7 9-10 10-15 9-14 5-9 2-16 1h-314l-16-1-15-4-14-7-10-8-10-10-9-14-5-13-3-15v-273l3-15 5-12 6-10 7-9 11-10 14-8 10-4 8-2zm1 32-10 2-13 7-9 9-8 14-2 9v267l2 11 6 12 9 10 11 7 10 3 12 1h316l16-2 14-7 7-6 8-11 4-11 1-17v-243l-1-17-4-12-7-10-10-9-10-5-11-2z"/>
<path transform="translate(87,16)" d="m0 0h336l13 2 14 5 12 7 11 9 11 14 7 14 4 15 1 10v260l-1 14-3 12-8 16-7 10-11 11-15 9-13 5-10 2-14 1h-318l-14-1-15-4-14-7-10-8-10-10-9-14-5-13-3-15v-273l3-15 5-12 6-10 7-9 11-10 14-8 13-5zm3 32-12 3-11 6-10 10-7 13-2 9v268l2 10 6 12 9 10 11 7 10 3 9 1h322l13-2 10-4 10-8 7-9 4-8 2-6 1-12v-256l-2-13-5-12-9-10-8-6-12-5-7-1z"/>
<path transform="translate(243,80)" d="m0 0h26l17 3 21 7 17 9 12 9 10 9 8 8 11 15 8 15 6 16 3 12 2 18v90l-3 14-5 10-8 9-11 7-11 4-13 1-14-3-11-6-10-9-7-12-3-10-5 2-11 4-12 2h-10l-14-3-9-4-10-6-9-8-8-11-5-11-3-12v-48l3-14 8-16 11-12 10-7 13-6 9-2h19l12 3 14 7 11 9 8 10 6 12 3 10 1 7 1 90 3 6 6 4 8 1 6-2 5-5 2-6v-84l-2-19-5-16-8-15-9-12-9-9-13-9-14-7-17-5-10-1h-18l-17 3-15 6-12 7-10 8-10 10-10 15-7 16-3 12-1 7v53l3 16 5 14 8 14 9 11 9 9 14 9 15 7 15 4 17 2v32h-9l-19-3-20-6-21-11-11-8-10-9-8-8-11-15-8-15-6-16-4-18-1-8v-52l3-21 5-16 9-19 10-14 9-10 10-10 14-10 14-8 19-7z"/>
<path transform="translate(657,912)" d="m0 0h318l1 4v26l-1 33-59 1h-259l-1-4v-59z" fill="#FDD771"/>
<path transform="translate(703,112)" d="m0 0 10 2 9 6 24 24 5 7 1 8-2 5-4 5-10 7-8 8-6 12-2 10v9l4 15 7 11 20 20 9 6 12 4h17l12-4 10-6 8-9 7-10 5-2 10 1 10 8 21 21 6 9 2 7-1 9-6 9-11 12-10 10-11 7-5 2-13 1-9-3-5-5-9-11-8-6-9-4-8-2-14-1-13-10-20-16v-2l-4-2-10-10-7-8-13-16-12-17-10-17-10-19-5-13-1-7v-7l3-10 6-9 25-25 6-3z" fill="#FE826E"/>
<path transform="translate(136,656)" d="m0 0h240l-2 4-7 6-5 5-2 3h-2v2l-56 56-11 9-12 6-14 4h-19l-14-4-13-7-13-12-60-60v-2l-4-2-6-6z" fill="#D4A57A"/>
<path transform="translate(202,767)" d="m0 0 20 10 13 4 12 2h18l16-3 13-5 10-5 3-2 5 1 12 10 13 10 15 12 13 10 4 4-15 1h-197l-14-1 4-4 9-7 16-13 14-11 13-11z" fill="#D4A57A"/>
<path transform="translate(250,176)" d="m0 0h12l9 3 9 7 6 10 2 10v37l-2 9-5 8-7 7-10 4-11 1-12-3-9-7-5-7-3-10v-43l4-11 7-8 8-5z" fill="#F3F5F6"/>
<path transform="translate(113,680)" d="m0 0h2l7 8 56 56v3l-10 7-16 13-14 11-17 14-8 6-1-2v-103z" fill="#D5A67C"/>
<path transform="translate(398,679)" d="m0 0 2 2v115h-4l-13-11-13-10-15-12-14-11-7-6 2-4 60-60z" fill="#D4A57A"/>
<path transform="translate(398,679)" d="m0 0 2 2-1 77-2-1-2-43v-15l1-7-2-1-2-2-54 54 1 6-4-2v-4l61-61z" fill="#F0CFB1"/>
<path transform="translate(113,680)" d="m0 0h2l4 5-1 3-3 4-1 91h-1z" fill="#F2D1B4"/>
<path transform="translate(391,687)" d="m0 0 3 1-8 7-48 48 1 6-4-2v-4z" fill="#E3BB97"/>
<path transform="translate(397,768)" d="m0 0h1l1 6 1 22h-4l-3-3v-2h2v-7l1-3z" fill="#EFCDAF"/>
<path transform="translate(113,680)" d="m0 0h2l4 5-1 3-3 4h-2z" fill="#EFCEB0"/>
</svg>
