<?xml version="1.0" encoding="UTF-8"?>
<svg version="1.1" viewBox="0 0 900 900" width="225" height="225" xmlns="http://www.w3.org/2000/svg">
<path transform="translate(0)" d="m0 0h900v900h-900z" fill="#E9D3A1"/>
<path transform="translate(447,9)" d="m0 0 88 44 23 11 156 78 19 9 98 49 8 5-1 33-15 14-7 8-12 13-2 3-1 16h12v26l-5-2-12-1 3-2h6l-1-7 1-6-2 1h-724l-2-1 1 12 66 1h612l38 1-3 2-4 1-4-1-7 1v1l-7 2v-2h-5l-3 1h-7l-1-3h-7l-1 5 4 1-605 1-7 1 10 12 2 4v10l-4 7-8 6-4 1v19l2 116 2 92 2 125 2 70 4 2v38l11 1 1 1v52h208v-173l1-1 13-1h137l10 1 1 173h210l1-52h12l-2 1v3l6 1 5-3-8-1 1-6-2-1 2-4 1 7v-4-10l-2 1-1-8v-14l3 2v3h-2v2l3 1 1 5 2 2 1 22h47l8 1-1 2 7 1h3l1-3h9l1 50 1 2 40 1v8l-1 1h-848v-9l36-1 1-52 11-1v-38l5-2 2-317 1-105-5-1-6-4-6-8-2-6v-8l3-7 3-5 1-33 12-1-1-12-4-7-11-14-12-16-2-3v-22l1-14 23-11 17-8 17-9 20-9 19-10 24-12 16-7 15-8 16-8 25-12 19-9 17-9 20-9 16-8 19-10 23-11 16-8 51-25 21-10z" fill="#09080B"/>
<path transform="translate(0)" d="m0 0h900v900h-900zm447 9-32 16-41 20-16 8-25 12-17 9-52 25-16 8-19 9-16 8-19 10-28 13-20 10-17 9-24 11-17 9-23 11-13 6-1 14v22l8 11 14 18 6 8 1 3 1 12-12 1-1 33-4 7-2 5v8l3 8 7 8 6 3h3l-1 105-2 317-5 2v38l-11 1-1 52-36 1v9h848l1-1v-8l-40-1-1-2-1-50-10-1-1-38-4-1-1-12-3-152-2-125-2-100v-34l6-2 5-4 5-8v-9l-4-7-6-6-2-36h-12l1-16 18-20 11-12 7-6 1-33-16-9-76-38-19-9-174-87-23-11-80-40z" fill="#FDFCFB"/>
<path transform="translate(445,20)" d="m0 0h5l17 9 32 16 19 9 19 10 23 11 116 58 19 9 19 10 44 22 29 14 40 20 3 2v21l-2 2h-767l-1-1v-23l16-8 25-12 48-24 23-11 36-18 48-23 16-8 25-12 16-8 23-11 64-32 23-11z" fill="#C7A984"/>
<path transform="translate(177,341)" d="m0 0h531v102h-531l-1-4v-94z" fill="#E7D09F"/>
<path transform="translate(379,705)" d="m0 0h137l10 1 1 173h210l1-52h12l-2 1v3l6 1 5-3-8-1 1-6-2-1 2-4 1 7v-4-10l-2 1-1-8v-14l3 2v3h-2v2l3 1 1 5 2 2 1 22h47l8 1-1 2 7 1h3l1-3h9l1 50 1 2 40 1v8l-1 1h-848v-9l36-1 1-52h10l-1 5 12-2 1-1-2-2h54l1 2 9 1 1-3h9l1 1v52h208v-173l1-1z" fill="#08070A"/>
<path transform="translate(77,300)" d="m0 0h728v13l-6 1 9 1 3 2 1-3 2 2 1 12 7 7 3 6v9l-6 9-8 5h-2v34l3 153 2 130 2 94 1 12 4 1 1 38 1 2-1 2-8 1-4-3-5-1-47-1-1-3-1-19-1 5h-1v-9l-1-3-2-1v-2l1-1h-1v10l1 6 2 1v10l1 4h-2l-1-2v4h5l4 3-8 4-6-2 1-5 1-38 5-2 2-419-1-3-10-6-6-8-1-3v-11l4-8 3-4v-3l1-5 5-1 3 3h7l2 1 1-2 6 2 5-2 4-1 5-1 4 1 3-1-39-1h-610l-64-1-1-1z" fill="#0A090C"/>
<path transform="translate(447,9)" d="m0 0 88 44 23 11 156 78 19 9 98 49 8 5-1 33-6 5v-3l1-2h-4v2l-7 3-19 19h-2l-1-6h-719l1 4-1 3 5-1 4 2v29l-1 1h-8l-1-15-4-7-11-14-12-16-2-3v-22l1-14 23-11 17-8 17-9 20-9 19-10 24-12 16-7 15-8 16-8 25-12 19-9 17-9 20-9 16-8 19-10 23-11 16-8 51-25 21-10zm-2 11-42 21-23 11-40 20-23 11-19 9-38 19-23 11-26 13-23 11-36 18-23 11-48 24-20 9-1 1v23l1 1h767l2-2v-21l-23-12-42-21-19-9-44-22-19-10-23-11-88-44-19-9-80-40-17-9-6-3z" fill="#0A090B"/>
<path transform="translate(445,20)" d="m0 0h5l17 9 32 16 19 9 19 10 23 11 116 58 19 9 19 10 44 22 29 14 40 20 3 2v21l-2 2h-767l-1-1v-23l16-8 25-12 48-24 23-11 36-18 48-23 16-8 25-12 16-8 23-11 64-32 23-11zm6 17-23 11-44 22-23 11-17 9-19 9-15 8-23 11-16 8-29 14-15 8-19 9-16 8-25 12-15 8-23 11-24 12-11 6-1 5 2 2h689v-6l-10-6-26-14-22-12-27-14-12-7-16-8-28-15-23-13-20-10-22-12-34-18-32-17-22-12-23-12-14-8z" fill="#F7F4F0"/>
<path transform="translate(90,264)" d="m0 0h702v28h-702l-1-1v-26z" fill="#E6CF9E"/>
<path transform="translate(451,37)" d="m0 0 6 2 18 10 34 18 26 14 34 18 22 12 31 16 17 10 14 7 22 12 23 12 22 12 23 12 22 12 16 9 3 2v6h-689l-2-2 1-5 19-10 56-28 35-17 17-8 19-10 24-12 23-11 17-8 17-9 19-9 19-10 22-11 23-11 44-22zm0 10-16 8-23 11-56 28-23 11-60 30-23 11-30 15-23 11-48 24-25 12-12 4v1h650l-2-2-16-8-22-12-23-12-22-12-51-27-11-6 2 6 6 10 12 19 9 14 6 10 1 5-7 5h-5l-6-9-14-22-2-8h-2v-2l7-1 1-4-4-6-4-2 1-5-3-2-5 2v10h2l-1 6 8 20 6 18-1 5-7 2h-5l-12-34-5-14-3-6h-2v57h-60l1-72h65l7-1 2 6 5-1 4-3v-2h2v-2l-27-14-22-12-23-12-22-12-25-13-22-12-20-11z" fill="#08070A"/>
<path transform="translate(780,347)" d="m0 0 4 1 8 11 8 6 1 32 2 103 1 93 3 145v48l-42 1-2-1v-104l2-317 3-3 6-4 3-4z" fill="#E8D2A0"/>
<path transform="translate(105,346)" d="m0 0 5 5 9 10 4 2 1 2 3 130 2 144 2 86v61h-43l-1-10 2-401 1-12 6-3 5-6z" fill="#E8D2A0"/>
<path transform="translate(829,238)" d="m0 0h4l-2 6-8 8-7 8-12 13-2 3-1 16h12v26l-5-2-12-1 3-2h6l-1-7 1-6-2 1h-731l-1 2-1 13h-1v-24l12-1 5 1 3 1 1-1h702v-28h-703l-5-2-1 4v-3h-2v-7l67-1h615l37 1 1 6h2l2-4 10-9 4-4h2l2-4 6-1z" fill="#09080B"/>
<path transform="translate(374,714)" d="m0 0h67l2 3v162l-1 1h-68z" fill="#A98960"/>
<path transform="translate(449,714)" d="m0 0h67l1 1 1 38v86l-1 41h-68z" fill="#A98960"/>
<path transform="translate(65,241)" d="m0 0h653l102 1-6 7-10 11-1 2h-2l-1-6h-719l1 4-1 2-4-2-7-11-5-6z" fill="#E6CF9E"/>
<path transform="translate(77,300)" d="m0 0h728v13l-6 1h-657l-64-1-1-1z" fill="#E4CD9D"/>
<path transform="translate(449,86)" d="m0 0h5l4 6 1 9 5 2 15 10 3 1 1-8 3-3h8l4 3 1 8-3 4h-3l3 12 12 36 2 9-3 6-5 4-9 3h-7l-10-3-8-7v-7l14-43 1-4-8-1-15-8v73l5 2 13 8-1 8-1 1h-48l-3-6 1-4 14-8 3-2 1-72-16 8-8 1 7 21 8 25 1 5-3 5-5 4-8 3h-14l-8-4-4-5v-7l14-43 4-8-4-2-3-3v-7l4-5h8l4 4 1 7 11-7 9-6h2l1-9z" fill="#211F21"/>
<path transform="translate(177,341)" d="m0 0h531v102h-531l-1-4v-94zm6 5-1 1v90l1 1h519l1-1v-90l-1-1z" fill="#08060A"/>
<path transform="translate(597,134)" d="m0 0 5 1-1 3-1 2 2 9 4 10 4 1 8 20 6 18-1 5-8 3h-5l-5-12-11-32-4-10-2-1 1 11v43l-1 3h-60v-72l1-1h65z" fill="#0B0A0D"/>
<path transform="translate(60,233)" d="m0 0h767l-2 2h-10l-12 1 1 2-6 1h-10-2-15l-25 1-275 1h-370l-1-1-25-1-4-3-7-1h-3z" fill="#08070A"/>
<path transform="translate(143,313)" d="m0 0h613l38 1-3 2-4 1-4-1-7 1v1l-7 2v-2h-5l-3 1h-7l-1-3h-7l-1 5 4 1h-605l2-1v-2l-4 1-6-1 1-5z" fill="#09080B"/>
<path transform="translate(615,134)" d="m0 0 15 8 25 13 22 12 34 18 32 17 14 8 5 2v1l-146-1-2-2-5-1 2-2 12-5-1-7-9-25-4-10 1-6h-2v-10l6-2 2 2-1 6 5 2 3 5-1 4-7 1v2h2l3 9 16 26 3 4h5l7-5-1-5-11-18-11-17-9-15-4-7z" fill="#C8AA84"/>
<path transform="translate(451,37)" d="m0 0 6 2 18 10 4 3-3 2 2 3h-4l9 4v2l3 1-2 1-12-7-16-8-5-2-16 8-23 11-56 28-23 11-60 30-23 11-30 15-23 11-48 24-25 12-10 3 3 2-15 1-2-4 27-14 16-8 17-8 19-10 28-13 17-9 40-20 23-11 17-8 17-9 19-9 19-10 22-11 23-11 44-22z" fill="#0C0A0C"/>
<path transform="translate(747,835)" d="m0 0h76l1 1v43l-1 1h-76l-1-1v-43z" fill="#E6D09E"/>
<path transform="translate(758,363)" d="m0 0h5l1 22v297l-1 104 3 1v1h-11v-224l1-185 1-15z" fill="#08070A"/>
<path transform="translate(72,835)" d="m0 0h75l1 1v43l-1 1h-76v-44z" fill="#E7D1A0"/>
<path transform="translate(325,119)" d="m0 0h22l7 1 1 4-4 3h-2l2 16 12 36 3 10v9l-5 5-7 3h-31l-8-2-5-5-1-9 6-20 8-26 1-4v-15l-1-4z" fill="#C6A882"/>
<path transform="translate(76,300)" d="m0 0h1l1 12 64 1-4 2-1 3 9 1v2h-2v2l-7 1-2 1h-4l-1 6 1 4 5 2 4 4v8l-6 6-9 1-5-5-4-6-2-5h-16l-7 14-7 3-1 4 4 1-1 4h2l1-2v224h-1l-1-185-3 1-2-1v7h-1v-46l-5-1-6-4-6-8-2-6v-8l3-7 3-5 2-23z" fill="#0B090C"/>
<path transform="translate(86,400)" d="m0 0 2 3v373l-1 11 3 1h-11l-1-6 2-313 1-59 1-7 4 1z" fill="#070609"/>
<path transform="translate(379,705)" d="m0 0h137l10 1 1 173 156 1v1l-158 1-3 1-1-2-5 2 1-44v-86l-1-39h2v-2l-8-2h-59l-3 3-7-4h-17l-10 1h-4v2l23 1v1h-59v166h-1l-1-138-1-5h-1l-1-9-2 2v144h1l1 6 4 2-4 2-3-1-1-4v-172l1-1z" fill="#17161A"/>
<path transform="translate(677,712)" d="m0 0h35l1 1v61h-37v-61z" fill="#C2DEE0"/>
<path transform="translate(579,712)" d="m0 0h36v62h-36l-1-1v-60z" fill="#C2E0E3"/>
<path transform="translate(379,603)" d="m0 0h37v61l-14 1h-22l-1-1z" fill="#C2DFE1"/>
<path transform="translate(672,603)" d="m0 0h37v61l-15 1h-21l-1-1z" fill="#C1DEE0"/>
<path transform="translate(477,603)" d="m0 0h37v61l-16 1h-21z" fill="#C2E0E4"/>
<path transform="translate(281,713)" d="m0 0h37v61l-5 1h-26l-6-1z" fill="#C2E1E5"/>
<path transform="translate(699,487)" d="m0 0h9l1 1v61h-37v-61z" fill="#C1DFE1"/>
<path transform="translate(505,487)" d="m0 0h7l2 1v61h-37v-61z" fill="#C2E1E4"/>
<path transform="translate(310,487)" d="m0 0h6l2 1v61h-37v-61z" fill="#C2E1E4"/>
<path transform="translate(282,603)" d="m0 0h36v61l-34 1-3-1v-60z" fill="#C2E1E4"/>
<path transform="translate(412,487)" d="m0 0 4 1v61h-37v-61z" fill="#C2DFE2"/>
<path transform="translate(575,603)" d="m0 0h36l1 60-1 1-13 1h-23l-1-35v-21z" fill="#C2E2E6"/>
<path transform="translate(608,487)" d="m0 0 3 1 1 60-1 1h-36l-1-11v-38l1-12z" fill="#C2E2E6"/>
<path transform="translate(184,603)" d="m0 0h36v61l-12 1h-23l-1-1z" fill="#C2E2E6"/>
<path transform="translate(216,487)" d="m0 0 4 1v61l-32 1-4-1v-61z" fill="#C3E3E7"/>
<path transform="translate(216,712)" d="m0 0 4 1v61h-36v-61z" fill="#C3E3E8"/>
<path transform="translate(490,111)" d="m0 0 1 2h5v-2h3l-1 4-2 3h-3l3 12 12 36 2 9-3 6-5 4-9 3h-7l-10-3-8-7v-7l14-43 1-5-3-1 6-2 1-2h2z" fill="#0A090C"/>
<path transform="translate(414,117)" d="m0 0 5 1-2 1v2h2l8 24 8 25 1 5-3 5-5 4-8 3h-14l-8-4-4-5v-7l14-43 3-6v-3h3z" fill="#0A090C"/>
<path transform="translate(536,366)" d="m0 0h28l5 3 4 5 4 10v11l-3 9-5 7-2 1h-31l-1-3v-42z" fill="#09080B"/>
<path transform="translate(625,366)" d="m0 0h28l6 4 4 4 2 5 1 11-2 12-6 8-3 2h-30z" fill="#09080B"/>
<path transform="translate(82,795)" d="m0 0h54l1 4v27h-55z" fill="#E8D1A0"/>
<path transform="translate(181,348)" d="m0 0h1l1 89h491v1l-262 1-1 2 10 1v1h-244l-1-4 3-3v2h2z" fill="#19171B"/>
<path transform="translate(759,795)" d="m0 0h51l2 1v30l-1 1h-15l-38-1v-30z" fill="#E8D2A0"/>
<path transform="translate(78,322)" d="m0 0h51l1 5 1 8 5 2 4 4v8l-6 6-9 1-5-5-4-6-2-5h-16l-7 14-3 2-8-1-6-4-3-6 1-9 5-6v-7z" fill="#E6CF9E"/>
<path transform="translate(759,322)" d="m0 0h46l1 10 10 10v6l-6 7-9 1-6-5-5-11h-17l-3 9-3 5-3 2-8-1-6-4-4-8 1-7 5-4 1-5v-4z" fill="#E6D09E"/>
<path transform="translate(567,140)" d="m0 0h7l2 2 3-2 5 1 1 4-3 4 3 1-1 10-1 1h-5l-1-4v-8l-3-2-1 3 1 2v6l2 1-2 4 2 3h-2l1 5 2-3 1-2 6-1 1 2v35l-2 2h-16l-1-4-1 4-3 1-7-2-1-38 3-1 8 1 1-24z" fill="#18171B"/>
<path transform="translate(412,438)" d="m0 0h290l-4 2-1 1h-18-2-6l2 2h-252l-95-1v-1l82-1z" fill="#09080C"/>
<path transform="translate(429,366)" d="m0 0h32l5 5 2 3 1 8-4 6-4 3h-3l10 14 4 7h-12l-9-14v-2l-5-2-7-1-1 1v18l-1 1h-8l-1-37v-9z" fill="#08070A"/>
<path transform="translate(178,707)" d="m0 0h48v73h-48zm38 5-32 1v61h36v-61z" fill="#0D0C0E"/>
<path transform="translate(178,482)" d="m0 0h48v72l-1 1h-46l-1-1zm38 5-32 1v61l5 1 31-1v-61z" fill="#070609"/>
<path transform="translate(449,86)" d="m0 0h5l4 6 1 9 5 2 15 10 3 1 1-8 3-3h8l4 3 1 5h-3v2h-6l-1 5h-2l-1 3-4 1 1 2-8-1-15-8h-3v-2h-4l1-4 1 2 5-1 5 1-1-1-4-2-6-7-5-1 1 4-3 6h-2l1 3 1 26-2 14h-1v-38l-16 8-9 1v-3h-2v-2h-3l-4 1-5-5v-7l4-5h8l4 4 1 7 11-7 9-6h2l1-9z" fill="#141317"/>
<path transform="translate(179,597)" d="m0 0h47v73l-46 1-2-1v-72zm5 6v61l1 1h23l12-1v-61z" fill="#08070B"/>
<path transform="translate(569,597)" d="m0 0h47l1 1v72l-48 1zm6 6-1 6v21l1 35h23l13-1 1-2-1-59z" fill="#0C0B0D"/>
<path transform="translate(569,482)" d="m0 0h48v73h-48zm39 5-33 1-1 12v38l1 11h36l1-2-1-59z" fill="#09080B"/>
<path transform="translate(276,597)" d="m0 0h47l1 1v72l-48 1-1-1v-72zm6 6-1 1v60l8 1 29-1v-61z" fill="#0C0B0E"/>
<path transform="translate(276,707)" d="m0 0h48v73l-7 1h-29l-13-1zm5 6v61l6 1h29l2-1v-61z" fill="#0A080B"/>
<path transform="translate(472,597)" d="m0 0h47l1 2v71l-48 1-1-1v-72zm5 6v62h21l16-1v-61z" fill="#0B0A0D"/>
<path transform="translate(276,482)" d="m0 0h48v73h-49zm34 5-29 1v61h37v-61l-2-1z" fill="#09080B"/>
<path transform="translate(471,482)" d="m0 0h48l1 71-1 2h-48zm34 5-28 1v61h37v-61l-2-1z" fill="#0A080B"/>
<path transform="translate(598,706)" d="m0 0h20l3 2v71l-1 1h-47l-1-1v-65l1-7zm-19 6-1 3v58l1 1h36v-62z" fill="#0B0A0D"/>
<path transform="translate(373,482)" d="m0 0h49l-1 73h-48zm39 5-33 1v61h37v-61z" fill="#08070A"/>
<path transform="translate(373,597)" d="m0 0h48l1 2-1 71-47 1-1-1zm6 6v61l1 1h22l14-1v-61z" fill="#0D0B0F"/>
<path transform="translate(325,119)" d="m0 0h22l7 1 1 4-4 3h-2l2 16 12 36 3 10v9l-5 5-7 3h-31l-8-2-5-5-1-9 6-20 8-26 1-4v-15l-1-4zm4 6v16l-2 8-3 10 1 1 15-1v5h-18l-3 9-5 17v6l5 4 7 2h19l12-2 4-3v-7l-13-41-2-8-1-16z" fill="#0A090C"/>
<path transform="translate(667,597)" d="m0 0h48v73l-47 1-1-1zm5 6v61l1 1h21l15-1v-61z" fill="#09080B"/>
<path transform="translate(667,482)" d="m0 0h48v73h-48zm32 5-27 1v61h37v-61l-1-1z" fill="#08070A"/>
<path transform="translate(704,706)" d="m0 0h8l7 2v71l-1 1h-47l-1-1 1-72zm-27 6-1 1v61h37v-61l-1-1z" fill="#08070A"/>
<path transform="translate(279,366)" d="m0 0h7l5 4 7 11 10 15 1-30h8l1 46h-10l-7-9-7-11-6-10h-1l1 30h-10v-33z" fill="#070609"/>
<path transform="translate(369,722)" d="m0 0h1l1 14h1l1 6 1 139h-6l-1-3h-1v-149l2-1z" fill="#050407"/>
<path transform="translate(459,114)" d="m0 0 19 9 5 1-1 7-13 40v7l3 3v2l-6-1-5 1 1 4-3-1z" fill="#C5A781"/>
<path transform="translate(483,366)" d="m0 0h19l5 3 4 7-1 5h-7l-4-6-6-2-7 1-1 1v6l5 2 15 4 7 8 1 6-5 9-7 4-10 1-10-3-5-4-4-8 1-4 6-1 3 2 3 7 4 2h9l5-5v-5l-16-4-8-4-4-5v-10l5-6z" fill="#08070A"/>
<path transform="translate(598,365)" d="m0 0 6 2 5 10 8 20 5 12v3l-6 1-5-2-3-10-17-1-3 12h-11l1-5 6-14 6-17 5-10z" fill="#09070A"/>
<path transform="translate(386,366)" d="m0 0h36v6l-1 1h-26v12h26v8l-26-1v13h27l1 1v6l-5 1h-25l-7-1z" fill="#09080B"/>
<path transform="translate(588,151)" d="m0 0 3 1 5 13 10 29 4 11 4 2-3 1 5 3-4 2h-70l-5-1v-1l12-1h21l-39-1v-1h57z" fill="#C4A680"/>
<path transform="translate(233,366)" d="m0 0h7l1 1 1 33 3 5 2 1h8l5-3 1-2 1-34 1-1h8v35l-4 8-5 4-6 2h-7l-10-3-5-6-2-8v-31z" fill="#09080B"/>
<path transform="translate(838,205)" d="m0 0 1 4-1 29-6 5v-3l1-2h-4v2l-7 3-13 13v-3l10-10-348-2v-1l275-1 36-1 4 1 1-2 1 1h10l4-2 1-1 12-1h11l3-3 2-12 4-1 1-9z" fill="#121115"/>
<path transform="translate(442,115)" d="m0 0h2v54l-3 3h-3v-2h-2l-2-2-2-4-11-35-1-5 10-3z" fill="#C6A882"/>
<path transform="translate(339,366)" d="m0 0h8l5 11 7 20 2 3 12-33 2-1h9l-7 18-10 25-2 3h-9l-5-10-9-24z" fill="#08070A"/>
<path transform="translate(76,300)" d="m0 0h1l1 12 64 1-4 2-1 3 9 1v2h-2v2l-7 1-2 1h-4l-2-2h-51l-2 2-6 1-1-1 1-23z" fill="#111015"/>
<path transform="translate(57,234)" d="m0 0 6 1 2-1 7 1 3 3 25 1 1 1 41 1v1h-68l-9-1 8 11 6 9 4 2 3-1 4 2v29l-1 1h-8l-1-15-4-7-11-14-5-7-1-5-1-2 1-6z" fill="#09080B"/>
<path transform="translate(595,155)" d="m0 0 2 1 1 5 5-2 2-2 3 3h2l8 20 6 18-1 5-8 3h-5l-5-12-11-32-1-5z" fill="#100E12"/>
<path transform="translate(487,126)" d="m0 0 3 1 12 36 1 8h-29l2-9 8-26z" fill="#C7A983"/>
<path transform="translate(414,126)" d="m0 0h2l12 38 1 7h-29l2-9 11-35z" fill="#C7A983"/>
<path transform="translate(545,373)" d="m0 0h13l7 4 2 4v16l-4 6-4 3h-14l-1-1v-23z" fill="#E6D09E"/>
<path transform="translate(634,373)" d="m0 0h14l5 3 4 8v11l-3 6-4 4-2 1h-14l-1-10z" fill="#E7D1A0"/>
<path transform="translate(630,163)" d="m0 0 3 1 7 11 9 15 3 4-1 5-7 5h-5l-4-5-16-26-2-6 3 1 1 2 1-5 5-1 3 2z" fill="#0D0C10"/>
<path transform="translate(471,598)" d="m0 0h41v1l-21 1 21 1v1h-35v63h19v1l-12 1-5 3h-8z" fill="#0B0A0D"/>
<path transform="translate(326,128)" d="m0 0 4 1v12l-2 8-3 10h15v5l-9 1h-9l-7 25v6l4 3 7 2h24v3l-7 1h-7-2l-1 1h-10l-8-2-5-5-1-9 6-20 8-26 2-14z" fill="#0C0B0D"/>
<path transform="translate(178,482)" d="m0 0 3 1h-2l1 61 2-1 1-54h1v60h36v-60h1l1 58 1 2-1 1 3 1v-68h1v71l-1 1h-46l-1-1z" fill="#1B1A1D"/>
<path transform="translate(709,489)" d="m0 0h1l1 6h3l1 36v24h-48v-1l5-1v-3-1h37z" fill="#121115"/>
<path transform="translate(322,164)" d="m0 0h14v2l-4 2 5 1v1h-13v6l17 1-2 4-7 2h-8v5l16 1 1 2-1 2h-17l1 5h17v-2h5v2l3 1v2l-4 1h-19l-9-3-3-3 1-9 6-22z" fill="#E2CA9A"/>
<path transform="translate(179,597)" d="m0 0h47v73l-46 1-2-1v-72zm0 1v63h4l2 4h34l4 4h2v-71z" fill="#18171A"/>
<path transform="translate(473,170)" d="m0 0 30 1-1 4 2 1-1 6-3 3-3 2-4 1h-7l-10-3-8-7v-7l1 2h4z" fill="#121116"/>
<path transform="translate(574,146)" d="m0 0 1 2 3 1v12l5-1 3-8 2 1 1 9v43l-1 3h-28l-1-3 4-1h2v-6l2 2v4l16-1 1-1v-37l-6 1-1 12h-1l-1 5h-1v-17l1-1-5-1 4-2v-4l-2-9z" fill="#08070A"/>
<path transform="translate(413,598)" d="m0 0h9l-1 72h-27l1-2 13-2-6-1v-1h14l-1-61z" fill="#060508"/>
<path transform="translate(486,103)" d="m0 0h8l4 3 1 5h-3v2h-6l-1 5h-2l-1 3-4 1 1 2-8-1-15-8h-3v-2h-4l1-4 1 2 5-1 5 1-1-1-1-4v-2l5 1 11 8 3 1 1-8z" fill="#111015"/>
<path transform="translate(532,152)" d="m0 0h1v9h6v2l-2 1 3 2h-6l-1 2v36l5-1 1-31 4-2v34h5l-3 4h-17v-50l3-2z" fill="#08070A"/>
<path transform="translate(275,598)" d="m0 0h11l-2 2 3 2h-5l-1 62 25 1v1l-8 1h-7l-7 1-4-1-1 3h-4z" fill="#070609"/>
<path transform="translate(746,239)" d="m0 0h18l5 1 53 1-2 2-349-2v-1z" fill="#171519"/>
<path transform="translate(794,314)" d="m0 0 14 1 3 2 1-3 2 2 1 13h-3l-5-1v-6l5 1v-2l-7 1-52 1-1 2-3-1-5-1 2-7 5-1 3 3h7l2 1 1-2 6 2 5-2 4-1 5-1 4 1z" fill="#111015"/>
<path transform="translate(327,366)" d="m0 0h7l1 1v45h-9v-45z" fill="#0A080B"/>
<path transform="translate(520,366)" d="m0 0h7l1 1v45h-9l-1-1 1-44z" fill="#08070A"/>
<path transform="translate(612,132)" d="m0 0 4 1 1 5 10 17 4 6-1 5-7-1-1 2v5l-5-5v-3h-2v-2l7-2-1-5-2-3-5-1 1-7-2-1-5 1 1 7-1 3h2l1 4h-2l-1 3h-2l-6-14-1-9 2-2 2 4 5-1 4-4h2v-2z" fill="#0B0A0D"/>
<path transform="translate(73,795)" d="m0 0 5 1h2l2-1v31h54v1l-50 1-3 3-5 1h-7v-6h2z" fill="#19171A"/>
<path transform="translate(430,171)" d="m0 0h1l1 7v3l-8 5-4 1h-14l-5-2 3-3-3-3 2-6 26-1z" fill="#121116"/>
<path transform="translate(218,598)" d="m0 0h7v71l-4-2-2-2 1-63-3-1z" fill="#0A080B"/>
<path transform="translate(616,482)" d="m0 0h1v73h-48v-8l2-1v4h2l1-12h1v11h36v2l-3 2 8 1z" fill="#19171B"/>
<path transform="translate(569,598)" d="m0 0h10l-3 1v2l3 1h-4v63h23l-3 2h-16l-3 1v2h-6l1-4 1-1v-4l-2-1 2-2v-9l-1-14h-1v-18l-1-6z" fill="#0A090C"/>
<path transform="translate(709,604)" d="m0 0 2 3h2l1 23h1v40h-1l-1-6-1 1h-18v-1h15z" fill="#121116"/>
<path transform="translate(451,709)" d="m0 0h59l8 3v2h-69z" fill="#070609"/>
<path transform="translate(567,140)" d="m0 0h7l2 2 3-2 5 1 1 4-3 4 3 1-1 10-1 1h-5l-1-4v-8l-3-2-1 3v11h-6l-1-1v-19z" fill="#151417"/>
<path transform="translate(519,761)" d="m0 0 3 2v97l-3 3z" fill="#050407"/>
<path transform="translate(556,166)" d="m0 0h6l1 1v36l-7 1-1-1v-36z" fill="#C1A37C"/>
<path transform="translate(456,438)" d="m0 0h176l-1 2h-50l-4 1h-2-5v-1h-17l-2 1v-2l-17 1-4 1v-2l-11 1v1h-22v-2l-2 2h-16v-2l-4 2h-21l2-1z" fill="#121116"/>
<path transform="translate(754,786)" d="m0 0 1 2 3-1 9 1-3 3h-2v2l-5 1 1 5v24h-1l-1-19-1 5h-1v-9l-1-3-2-1v-2l1-1h-1v10l1 6 2 1v10l1 4h-2l-1-2v4h5l4 3-8 4-6-2 1-5 1-38z" fill="#18161A"/>
<path transform="translate(325,119)" d="m0 0h22l7 1 1 4-4 3h-2l1 16-2-2h-3v-16h-16v14h-1v-11h-2l-1 2-2-9z" fill="#09080B"/>
<path transform="translate(438,372)" d="m0 0 19 1 2 3-1 7-2 2-4 1h-14l-1-1v-12z" fill="#DFC897"/>
<path transform="translate(395,373)" d="m0 0h23l2 1v10h-25z" fill="#E9D3A1"/>
<path transform="translate(533,165)" d="m0 0 7 1-1 37-1 1h-5l-1-2v-34z" fill="#C0A27B"/>
<path transform="translate(86,381)" d="m0 0 1 4h2v203h-1l-1-185h-4v-7l1-2h2z" fill="#19181C"/>
<path transform="translate(550,165)" d="m0 0h1v38l-7 1v-38z" fill="#C5A881"/>
<path transform="translate(275,542)" d="m0 0h1v9l10 1v-2h-5v-1h37l1 3 4 1 1-3v5h-49z" fill="#0E0D11"/>
<path transform="translate(566,166)" d="m0 0h7v37l-1 1h-5l-1-4z" fill="#C0A27C"/>
<path transform="translate(581,165)" d="m0 0h3l1 2v35l-2 2-5-1-1-4v-31l1-2z" fill="#C4A680"/>
<path transform="translate(417,125)" d="m0 0 2 1 1 3h2l8 26 6 18-2 6-3-1-1-6h-13v-1h12l-9-29-3-12z" fill="#0C0B0E"/>
<path transform="translate(373,543)" d="m0 0h1l1 6h41l-2 4-2 1 4 1h-43z" fill="#19181B"/>
<path transform="translate(278,169)" d="m0 0h8l6 4 2 5v12l-1 3-4 2-1 1h-7l1-3 5-3v-9l-7-3 3 5v5l-5 1-2-2 1-7 3-6h3l4 1-2-4-7-1z" fill="#DFC797"/>
<path transform="translate(623,164)" d="m0 0 5 1 7 11 8 13 3 5-1 4h-4l-7-10-12-19-1-3z" fill="#DCC394"/>
<path transform="translate(602,164)" d="m0 0h5l4 10 7 20 1 5-3 2h-3l-6-15-6-17z" fill="#DDC495"/>
<path transform="translate(633,438)" d="m0 0h69l-4 2-1 1h-18-2-6l2 2h-52v-1l21-1-4-2-1 2z" fill="#111015"/>
<path transform="translate(331,438)" d="m0 0h81l-1 3h-81z" fill="#111015"/>
<path transform="translate(412,438)" d="m0 0h42l-1 3h-6v-2l-4 2 1 2h-23l-95-1v-1l82-1z" fill="#0A090D"/>
<path transform="translate(477,549)" d="m0 0h37v3l5 1v2h-39l-3-1-1-3z" fill="#110F14"/>
<path transform="translate(57,234)" d="m0 0 6 1 2-1 7 1 3 3 25 1 1 1 41 1v1h-79v3h-2v-2h-2v-5z" fill="#1A191C"/>
<path transform="translate(354,205)" d="m0 0h6v2l-2 2-1 2h-7l-10 1h-11l-9-1h-10l4-2 1-3z" fill="#E1C999"/>
<path transform="translate(605,182)" d="m0 0h2l6 17v2l5-2-3-10 1-4 5 4 3 9-1 5-8 3h-5l-5-12-2-6 1-4z" fill="#0C0B0E"/>
<path transform="translate(632,438)" d="m0 0 5 2 5-1v3l-22 1-54-1 1-3 5 1v-1h7 1 51z" fill="#050407"/>
<path transform="translate(254,171)" d="m0 0h5l1 10v9l-2 2-5-1-8-4 1-5 5-8z" fill="#09080B"/>
<path transform="translate(482,128)" d="m0 0 4 1-1 7-10 32-2 5h-4l1-8z" fill="#0C0B0E"/>
<path transform="translate(526,439)" d="m0 0h4v2l2-2h19l1 1v-1h15v2l53 1v1h-92l-3-2z" fill="#0D0C0F"/>
<path transform="translate(178,598)" d="m0 0h1l1 62h2l1-57h1l1 61 12 2v1h-9l-2 2v1h-8z" fill="#1A191B"/>
<path transform="translate(569,611)" d="m0 0h1l1 8v15l1 4 1 11v10 1 5l2 2-5 1 6 2v-2h2l1-2h27l-1 2-27 2v1h-9z" fill="#111015"/>
<path transform="translate(283,170)" d="m0 0 4 2v3l-6-1-4 8v5l5 1v-5l-2-2v-3l7 2 1 1v9l-3 3-5 1-6-3-1-11 4-9z" fill="#0D0C0F"/>
<path transform="translate(365,707)" d="m0 0h1l1 167h1l1 6 4 2-4 2-3-1-1-4z" fill="#211F21"/>
<path transform="translate(76,303)" d="m0 0h1l1 9 64 1-4 2-1 3 9 1v2h-2v2l-7 1-2 1h-4l-2-2-5-1 2-5 1 2 4-4-55-1z" fill="#19181B"/>
<path transform="translate(750,789)" d="m0 0 3 2v3h-2v2l3 1 1 5 2 2 1 22h38v1l-45 1 1-6-2-1 2-4 1 7v-4-10l-2 1-1-8z" fill="#0B0A0D"/>
<path transform="translate(613,142)" d="m0 0 3 2-1 6 5 2 3 5-1 4-7 1v2h2l-1 3-5-7-2-2 1-4h-2v-10z" fill="#141317"/>
<path transform="translate(131,758)" d="m0 0h1v29h6l2 4-5 1-6-3-1-1h-18v1l-21 1-4 3-6-2-3-4 6-1v1h5v-10h1v9h43z" fill="#211E20"/>
<path transform="translate(478,202)" d="m0 0h1v6l-4 3h-7l-4-1-17 1-25-1 3-4h51z" fill="#D5BC8D"/>
<path transform="translate(244,173)" d="m0 0h6l-1 7-3 4v3l9 4v2l-3 1-5 2-1 2h-2l-3-5-1-4v-9l2-6z" fill="#E0C998"/>
<path transform="translate(442,132)" d="m0 0h1l1 37v18h-3l1-2-5-1-6-2 4-7-1-9 2 4h2v2l3-1z" fill="#E4CD9D"/>
<path transform="translate(617,167)" d="m0 0 3 1 1 2 2-1 12 19 5 8-4 5-12-20-6-9z" fill="#131216"/>
<path transform="translate(469,163)" d="m0 0h1l-1 15 3 3v2l-6-1-5 1 1 4-3-1v-15l1-5h9z" fill="#E1CA99"/>
<path transform="translate(458,185)" d="m0 0 2 1v2l5 2 13 8-1 8-1 1h-6l-2-2-2-4-1-5-3-1-3-5z" fill="#121115"/>
<path transform="translate(141,200)" d="m0 0 3 1-8 5 3 2-1 1h10l7 1v1l-18 2h-25l2-2 10-3z" fill="#D9C191"/>
<path transform="translate(595,125)" d="m0 0 5 1 14 7v2h-2l-2 4-4 2-4-1-1-5h-12v-1l8-1-3-6z" fill="#E0C898"/>
<path transform="translate(737,201)" d="m0 0 6 1 14 8 5 2v1h-20l-6-2 1-6z" fill="#DCC394"/>
<path transform="translate(600,136)" d="m0 0 3 4 5-1 6-3 1 4-7 2-1 3 2 6-1 3h2l1 4h-2l-1 3h-2l-6-14-1-9z" fill="#070609"/>
<path transform="translate(569,597)" d="m0 0h47v1l-7 1v2l2 2h-36l1-4-7-1z" fill="#1B191D"/>
<path transform="translate(311,193)" d="m0 0 8 6 7 2h24v3l-7 1h-7-2l-1 1h-10l-8-2-5-5zm1 2 1 2z" fill="#0E0C10"/>
<path transform="translate(714,630)" d="m0 0h1v40h-1l-1-6-1 1h-18v-1h15v-12h3l-1-3 1-4 1-14z" fill="#18171B"/>
<path transform="translate(442,188)" d="m0 0 2 1-3 4 1 5h-4v2l-6-1 1 7h-6l-2-5 1-4 14-8z" fill="#0F0E12"/>
<path transform="translate(276,597)" d="m0 0h33v1l7 1 1 4h-35l2-4-8-1z" fill="#1A181C"/>
<path transform="translate(752,313)" d="m0 0 42 1-3 2-4 1-4-1-7 1v1l-7 2v-2h-5l-3 1h-7l-1-3h-2z" fill="#060508"/>
<path transform="translate(565,198)" d="m0 0 2 2v4l16-1 5-4v9h-28l-1-3 4-1h2z" fill="#08070A"/>
<path transform="translate(225,170)" d="m0 0 4 1v21l-4 1-1-1v-14h-6l2-4z" fill="#0E0D10"/>
<path transform="translate(588,162)" d="m0 0h1v43l-2-4-2 1-1-15v-11l3-1z" fill="#171518"/>
<path transform="translate(280,666)" d="m0 0h5l1 1 8-1h12l10 2 1 2-41 1 3-1z" fill="#0F0E13"/>
<path transform="translate(569,495)" d="m0 0 2 4v7l1 4-1 7 2 2v29h-1l-1-6-2-1z" fill="#111014"/>
<path transform="translate(555,164)" d="m0 0 11 1v33l-1 6-3 1-1-2h2l-1-22v-14h-8z" fill="#131217"/>
<path transform="translate(241,170)" d="m0 0h2l-1 6-1 4v9l3 7 1 3-5-1-4-6v-14l3-6z" fill="#0D0C0F"/>
<path transform="translate(675,666)" d="m0 0h31l-1 2 4 1v1h-35l-1-3z" fill="#0F0E13"/>
<path transform="translate(291,170)" d="m0 0 4 1 3 9v12l-3 7h-4l2-9v-12l-2-5z" fill="#0D0C0F"/>
<path transform="translate(738,835)" d="m0 0 3 2 4-1 1 1v40l-2 2-1-6 1-4v-17l-3-7v-4h-2l-1 2z" fill="#121116"/>
<path transform="translate(612,132)" d="m0 0 4 1 1 5 7 12-3 3-7-2 1-7-2-1-5 1-1 4-1-4 2-3 6-1-1-3-1-2h2v-2z" fill="#0F0D11"/>
<path transform="translate(573,152)" d="m0 0h1v6l2 1-2 4 2 3h-2l1 36 5 1v1h-8l1-38h-7v-6l7 1z" fill="#1C1B1E"/>
<path transform="translate(97,212)" d="m0 0 6 1 4 4-1 2 2 1-1 1h-12l-2-2 1-5z" fill="#09070B"/>
<path transform="translate(598,377)" d="m0 0h2l5 13v2l-12 1 3-9z" fill="#DFC797"/>
<path transform="translate(533,174)" d="m0 0h1l1 13h3l1 16-1 1h-5z" fill="#E7D09F"/>
<path transform="translate(272,170)" d="m0 0h4l-1 7-2 5v9l-3-2-1 3h-2l1-13z" fill="#E1C999"/>
<path transform="translate(630,163)" d="m0 0 3 1 7 11 5 9h-2l-3-3-2 1-9-14z" fill="#131216"/>
<path transform="translate(73,788)" d="m0 0h5l2 3 5 1 4-3 3 1h-2l-1 4-9 3-2 4-1-5-2-1v7h-1z" fill="#070509"/>
<path transform="translate(665,439)" d="m0 0h8 1 10v1l22 1 2-1v3h-35l-5-1z" fill="#0A090D"/>
<path transform="translate(569,660)" d="m0 0h4v5l2 2-5 1 6 2v-2h2l1-2h27l-1 2-27 2v1h-9z" fill="#121116"/>
<path transform="translate(515,526)" d="m0 0h1l1 8h1l1 8h1v11l-4 1-3-2 1-4z" fill="#0B0A0D"/>
<path transform="translate(332,182)" d="m0 0h7l1 1v5h-16v-5z" fill="#0B090D"/>
<path transform="translate(532,152)" d="m0 0h1v9h6v2l-2 1 3 2h-6l-1 2h-2v2h-2l-1-3v-9l3-2z" fill="#0F0D10"/>
<path transform="translate(324,171)" d="m0 0h16v5l-14 1-2-1z" fill="#0A080C"/>
<path transform="translate(283,170)" d="m0 0 4 2v3l-6-1-4 8-1 5-3-1 1-9 3-6z" fill="#0E0D0F"/>
<path transform="translate(704,598)" d="m0 0h10v33h-1v-24h-2l-1 2-2-6-4-3z" fill="#050407"/>
<path transform="translate(281,549)" d="m0 0h37l-1 2h-15l-1 2h-19l4-1v-2h-5z" fill="#232123"/>
<path transform="translate(462,47)" d="m0 0 4 1 7 3v2l4 2 1 2h-4l9 4v2l3 1-2 1-12-7-14-7 3-1 10 5-2-2-4-2z" fill="#151418"/>
<path transform="translate(486,103)" d="m0 0h8l3 2-1 4-2 1-11 1 1-7z" fill="#08070B"/>
<path transform="translate(115,314)" d="m0 0h16v3l-4 2-8 1-5-2h-2v-2z" fill="#060508"/>
<path transform="translate(415,549)" d="m0 0v3l-3 2 4 1h-17v-1l6-1-4-1h-17v-2z" fill="#111015"/>
<path transform="translate(323,194)" d="m0 0h17l-1 5h-13l-2-1z" fill="#131215"/>
<path transform="translate(178,436)" d="m0 0 1 2 4-1 9 2 1 2 5 1v1h-21l-1-4z" fill="#161519"/>
<path transform="translate(281,173)" d="m0 0 2 2h-2v2h6l1 4-8-3 3 5v5l-5 1-2-2 1-7 3-6z" fill="#CBB084"/>
<path transform="translate(571,658)" d="m0 0h3v7h24l-3 2h-16l-3 1v2h-6l1-4 1-1v-4l-2-1z" fill="#050407"/>
<path transform="translate(230,172)" d="m0 0 7 1-2 13-3-3-3 1v-11z" fill="#EBD5A3"/>
<path transform="translate(560,151)" d="m0 0h3v8l-1 2h-7v-9z" fill="#C8AC82"/>
<path transform="translate(570,210)" d="m0 0m-26 0h25l1 3h-28l-5-1v-1z" fill="#BB9D76"/>
<path transform="translate(616,151)" d="m0 0 4 1 3 5-1 4-5 1-3-5v-5z" fill="#D4BA8D"/>
<path transform="translate(633,438)" d="m0 0h23l3 4h-16l-1-2-4-1-1 2z" fill="#0D0C10"/>
<path transform="translate(567,185)" d="m0 0 3 4 2 6 1 8-1 1h-5z" fill="#E6CF9E"/>
<path transform="translate(269,169)" d="m0 0h2l-1 7-3 15-4-1 2-11 3-9z" fill="#0F0E10"/>
<path transform="translate(600,165)" d="m0 0 2 4 4 11-1 5h-3l-4-11z" fill="#121115"/>
<path transform="translate(598,150)" d="m0 0 5 1 1 8-3 2h-3l-2-5v-5z" fill="#CFB588"/>
<path transform="translate(275,542)" d="m0 0h1v9l6 1 21 2v1h-28z" fill="#131216"/>
<path transform="translate(409,103)" d="m0 0h8l2 1-2 4-11 3v-5z" fill="#080609"/>
<path transform="translate(78,786)" d="m0 0 4 1 28 1v1l-21 1-4 3-6-2-3-4z" fill="#141317"/>
<path transform="translate(547,151)" d="m0 0h4v10h-7v-8z" fill="#BB9C75"/>
<path transform="translate(378,535)" d="m0 0h1v15h-5v-13z" fill="#050407"/>
<path transform="translate(477,549)" d="m0 0h37l-1 2h-24l-1 2h-10l4-2-5-1z" fill="#232123"/>
<path transform="translate(79,262)" d="m0 0 4 1 3-1 4 2-1 11h-1l-1-7 1-2-3 1-2 5-3-1z" fill="#1A171A"/>
<path transform="translate(595,155)" d="m0 0 2 1 2 5 2 1-1 10-3-1-4-11 1-4z" fill="#0A090C"/>
<path transform="translate(579,151)" d="m0 0h6l-1 9-1 1h-5v-9z" fill="#D8BF91"/>
<path transform="translate(750,822)" d="m0 0h2v4h5l4 3-8 4-6-2z" fill="#141317"/>
<path transform="translate(566,152)" d="m0 0h7v9h-6l-1-1z" fill="#D5BB8E"/>
<path transform="translate(72,237)" d="m0 0 3 1 25 1 1 2h-29l-1-3z" fill="#111015"/>
<path transform="translate(710,626)" d="m0 0h1l1 5h1v18l-1 3h-2z" fill="#050407"/>
<path transform="translate(456,438)" d="m0 0h23l-4 3h-21l2-1z" fill="#100F14"/>
<path transform="translate(341,196)" d="m0 0h5v2l3 1v2l-4 1h-12l1-3 7-1z" fill="#DEC696"/>
<path transform="translate(534,151)" d="m0 0h5v10h-6v-9z" fill="#DFC797"/>
<path transform="translate(838,205)" d="m0 0 1 4-2 20h-1l-1-6-2 2-1-1-2 2 1-7 4-1 1-9z" fill="#1A1719"/>
<path transform="translate(609,159)" d="m0 0 3 1 6 9 2 6-2 2-3-2z" fill="#C4A87D"/>
<path transform="translate(497,106)" d="m0 0 2 3v2h-3v2h-6l-1 5-5-1v-2l3-1-2-2h2v-2l7-1z" fill="#232123"/>
<path transform="translate(71,826)" d="m0 0h10l-1 5-2 1h-7z" fill="#17161A"/>
<path transform="translate(376,512)" d="m0 0h1l1 23-2 3-1-1v-23z" fill="#121116"/>
<path transform="translate(254,178)" d="m0 0h2v5l-2 3h-2l1 4-7-2-1-4h4v2h2l1-6z" fill="#695B49"/>
<path transform="translate(260,171)" d="m0 0 6 1-1 7-3 5-2-2z" fill="#EBD5A3"/>
<path transform="translate(459,114)" d="m0 0 7 3v2l-5 2v26h-1z" fill="#E4CC9C"/>
<path transform="translate(423,105)" d="m0 0 6 1 2 1-2 4-5 3h-2v-7z" fill="#E2CB9B"/>
<path transform="translate(713,657)" d="m0 0h1v13h-5l-5-1-4-2h5l1-2 6-1z" fill="#060508"/>
<path transform="translate(575,159)" d="m0 0 3 4-1 15h-1l-1 5h-1v-17l1-1-5-1 4-2z" fill="#050407"/>
<path transform="translate(463,44)" d="m0 0 4 1 12 6-1 2h-5v-2l-6-1-4-4z" fill="#0A090C"/>
<path transform="translate(181,543)" d="m0 0 2 3v3h5l-4 1 1 4-6 1v-10z" fill="#100F13"/>
<path transform="translate(605,182)" d="m0 0h2l3 11-4 3-3-8 1-4z" fill="#0D0C0F"/>
<path transform="translate(487,176)" d="m0 0 4 2-2 4-5 1-7-5 4-1h5z" fill="#222022"/>
<path transform="translate(467,104)" d="m0 0 4 1v2l8 1 2 1 1-2v7l-5-1-10-8z" fill="#DAC193"/>
<path transform="translate(556,140)" d="m0 0h6l1 5-5 3-3-1z" fill="#D7BD8F"/>
<path transform="translate(414,126)" d="m0 0h2l2 6v5l-1-3-3 1-3 6-1-4 3-10z" fill="#DAC293"/>
<path transform="translate(544,161)" d="m0 0h7l1 2v24h-1l-1-21h-6l3-3-3-1z" fill="#1F1E20"/>
<path transform="translate(535,139)" d="m0 0 4 1v7l-5 1-1-1v-7z" fill="#DDC595"/>
<path transform="translate(449,86)" d="m0 0h5l2 2v4l-7 1-2-2z" fill="#09080B"/>
<path transform="translate(615,134)" d="m0 0 15 8-1 2-7-2-1 3-4-5z" fill="#D4BA8C"/>
<path transform="translate(750,803)" d="m0 0h1l1 6 2 1v10l1 4h-2l-2-3h-1z" fill="#111015"/>
<path transform="translate(484,666)" d="m0 0h13l-1 2-5 1h-10v2h-9v-1l7-1z" fill="#151418"/>
<path transform="translate(384,666)" d="m0 0h25v1l-17 2h-10z" fill="#121116"/>
<path transform="translate(574,538)" d="m0 0h1v12h4v2h-6l-1 2h-3v-7l2-1v4h2z" fill="#0F0E11"/>
<path transform="translate(556,194)" d="m0 0 4 2 2 3-1 5h-5l-1-1v-7z" fill="#DFC798"/>
<path transform="translate(545,140)" d="m0 0h6v6l-6 2-1-1z" fill="#D6BC8E"/>
<path transform="translate(593,140)" d="m0 0h6v5l-3 3-4-2v-5z" fill="#D4BA8E"/>
<path transform="translate(81,355)" d="m0 0h3l-1 6 4 1-1 2h-8l-2-2h2l1-3 2-2z" fill="#1E1C1D"/>
<path transform="translate(579,140)" d="m0 0 5 1 1 4-2 2h-5l-1-5z" fill="#D7BE8F"/>
<path transform="translate(302,666)" d="m0 0 10 1 5 2v1h-13l-5-1z" fill="#0F0E12"/>
<path transform="translate(189,549)" d="m0 0h31v1l-11 2h-6v-1h-8l-6-1z" fill="#232123"/>
<path transform="translate(425,198)" d="m0 0 1 2h2v-2l4 1 1 7h-6l-2-5z" fill="#131217"/>
<path transform="translate(613,142)" d="m0 0 3 2-1 4-6 2-1-1v-5z" fill="#DAC192"/>
<path transform="translate(478,202)" d="m0 0h1v6l-4 3h-7l-3-1v-2l10-1z" fill="#E6CF9E"/>
<path transform="translate(622,203)" d="m0 0 3 1-6 5-5 1-5-1 2-2z" fill="#E3CB9B"/>
<path transform="translate(345,201)" d="m0 0h5v3l-7 1h-7v-1l-9-1v-1z" fill="#161518"/>
<path transform="translate(615,175)" d="m0 0 2 3 3 10-6-2-1-9h2z" fill="#141317"/>
<path transform="translate(653,156)" d="m0 0 5 1 17 9-1 2-16-8z" fill="#D8BF90"/>
<path transform="translate(324,183)" d="m0 0 2 1 1 2 4-1 7-1 2-1v5h-16z" fill="#141317"/>
<path transform="translate(438,438)" d="m0 0h16l-1 3h-6v-2l-4 2h-11v-1h6z" fill="#111015"/>
<path transform="translate(454,210)" d="m0 0m-7 0h6l1 1 15 1v1h-20l-10-1v-1z" fill="#B89972"/>
<path transform="translate(634,173)" d="m0 0 1 2 4-1 6 9-2 1-3-3-2 1-4-6z" fill="#111014"/>
<path transform="translate(585,175)" d="m0 0h3v10l-4 2v-11z" fill="#161519"/>
<path transform="translate(574,146)" d="m0 0 1 2 3 1v9l-2 1-2-1-2-9z" fill="#050408"/>
<path transform="translate(756,209)" d="m0 0h6l7 3 5 1v2l-11-1-7-4z" fill="#201E20"/>
<path transform="translate(604,157)" d="m0 0 4 3h2l-2 5h-7v-3l-2-1 4-2z" fill="#18161A"/>
<path transform="translate(567,140)" d="m0 0h5l1 1v5l-1 1h-5z" fill="#DAC193"/>
<path transform="translate(569,660)" d="m0 0h4v5l2 2-5 1 8 2v1h-9z" fill="#151419"/>
<path transform="translate(792,275)" d="m0 0h1v16h8l1 2-2 1h-8z" fill="#18171B"/>
<path transform="translate(359,209)" d="m0 0 8 1-4 2h-18v-1l5-1h8z" fill="#CFB38B"/>
<path transform="translate(241,170)" d="m0 0h2l-1 6-2 4-3-1-1 2 1-6z" fill="#121014"/>
<path transform="translate(515,526)" d="m0 0h1l1 8h1v10l-3 4z" fill="#121116"/>
<path transform="translate(807,322)" d="m0 0h6l2 7h-3l-5-1z" fill="#1E1D1F"/>
<path transform="translate(508,438)" d="m0 0h9l-1 3h-10l-6-1v-1z" fill="#0C0B0F"/>
<path transform="translate(445,131)" d="m0 0 2 1-1 16-1 5h-1v-16z" fill="#121116"/>
<path transform="translate(487,126)" d="m0 0 3 1 1 7-5 2v-7z" fill="#DCC495"/>
<path transform="translate(482,109)" d="m0 0 5 1 1 4-7 2-3 1v-4l4 1z" fill="#151418"/>
<path transform="translate(651,198)" d="m0 0h2v2h-2l-2 4-9 4v-3h4l1-3z" fill="#DFC797"/>
<path transform="translate(574,187)" d="m0 0h1l2 6v9l-3 1z" fill="#0D0C11"/>
<path transform="translate(264,179)" d="m0 0 1 4-1 7h-4v-8l3-1z" fill="#C0A27B"/>
<path transform="translate(613,153)" d="m0 0 2 4 2 5h-2v2h2l-1 3-5-7-2-2 3-1z" fill="#18171A"/>
<path transform="translate(328,147)" d="m0 0h2l-3 11h6l-3 2h-5l-1-2z" fill="#D3B98B"/>
<path transform="translate(138,826)" d="m0 0h10l-2 4-5 1-5-2 2-1z" fill="#131116"/>
<path transform="translate(464,209)" d="m0 0 10 2v1h-20l1-2z" fill="#C8AA85"/>
<path transform="translate(805,787)" d="m0 0 9 1 2 3-7 1-3-1z" fill="#141217"/>
<path transform="translate(569,495)" d="m0 0 2 4v7l1 4-1 7-2 1z" fill="#121116"/>
<path transform="translate(639,197)" d="m0 0h2v3l3 1v3h-5l-2-2 1-4z" fill="#0A090C"/>
<path transform="translate(490,111)" d="m0 0 1 2h5v-2h3l-1 4-3 3v-2l-6-1z" fill="#141217"/>
<path transform="translate(454,109)" d="m0 0 1 2 5-1 3 3v2h-6v-2h-4z" fill="#0F0E12"/>
<path transform="translate(280,666)" d="m0 0h5l1 4-6 1-4-1h3z" fill="#141317"/>
<path transform="translate(564,157)" d="m0 0h2l-1 16h-1l-1-8-1-3z" fill="#050407"/>
<path transform="translate(821,826)" d="m0 0 2 2-1 2-8 1-4-3 10-1z" fill="#121116"/>
<path transform="translate(317,550)" d="m0 0h2v2l4 1 1-3v5h-14v-1l8-1z" fill="#111015"/>
<path transform="translate(609,162)" d="m0 0h2l1 2v6l-2 2-2-3v-6z" fill="#0B0A0D"/>
<path transform="translate(295,190)" d="m0 0 2 2-1 6-5 1 1-6h2z" fill="#161519"/>
<path transform="translate(599,140)" d="m0 0h1l2 10-6 1v-4l2-2z" fill="#1B1A1D"/>
<path transform="translate(577,158)" d="m0 0 1 3 6-1v2l-4 1 1 3h-3l-1 2-1-9z" fill="#19181B"/>
<path transform="translate(482,128)" d="m0 0 4 1-1 7-4-2z" fill="#0D0C0F"/>
<path transform="translate(679,775)" d="m0 0 9 2v2h-10v-3z" fill="#111015"/>
<path transform="translate(366,707)" d="m0 0h6l-2 1 1 4-3 2-2-1z" fill="#050408"/>
<path transform="translate(274,177)" d="m0 0 1 2 3 1-2 7-3-1z" fill="#161417"/>
<path transform="translate(577,147)" d="m0 0h5v2l3 2-6 1-1 5h-1z" fill="#18171B"/>
<path transform="translate(326,128)" d="m0 0h2v12l-1-3h-2v-7z" fill="#121116"/>
<path transform="translate(449,94)" d="m0 0h4l1 5h-5-3l1-4z" fill="#222022"/>
<path transform="translate(835,221)" d="m0 0h1v9l-4 1 1-3-2-4 2-2 1 1z" fill="#050407"/>
<path transform="translate(549,152)" d="m0 0h1v8h-4-1v-6z" fill="#E9D3A1"/>
<path transform="translate(447,88)" d="m0 0 2 4v3h-2v2h-2l-1 3 1-8z" fill="#161418"/>
<path transform="translate(663,439)" d="m0 0 7 1 3 3h-10l-3-2h3z" fill="#0E0D11"/>
<path transform="translate(800,259)" d="m0 0 1 3h2l1-2v3l-2 1-1 4h-2l-1-8z" fill="#2C2725"/>
<path transform="translate(615,162)" d="m0 0h5v3l2 2v5l-5-5v-3h-2z" fill="#08070A"/>
</svg>
